<?xml version="1.0" encoding="UTF-8"?>
<svg width="66.60403442382812" height="39.403472900390625" class="default-border" style="-webkit-tap-highlight-color: rgba(0, 0, 0, 0); touch-action: none;" xmlns="http://www.w3.org/2000/svg" xmlns:xlink="http://www.w3.org/1999/xlink" viewBox="366.697998046875 280.29827880859375 66.60403442382812 39.403472900390625"><g><g><path fill="#000000" stroke="none" stroke-width="0" data-arc-params="[]" d="M 392.19530561417724 288.421880470235 C 392.19530561417724 288.421880470235 392.19530561417724 303.203130470235 392.19530561417724 303.203130470235 C 392.19530561417724 304.8177138035683 391.869784780844 306.2552138035683 391.21874311417724 307.515630470235 C 390.5677014475105 308.7760471369017 389.58593061417724 309.7682346369017 388.27343061417724 310.492192970235 C 386.96093061417724 311.2161513035683 385.315097280844 311.578130470235 383.33593061417724 311.578130470235 C 380.5130139475105 311.578130470235 378.3645764475105 310.812505470235 376.89061811417724 309.281255470235 C 375.416659780844 307.750005470235 374.67968061417724 305.703130470235 374.67968061417724 303.140630470235 C 374.67968061417724 303.140630470235 374.67968061417724 288.421880470235 374.67968061417724 288.421880470235 C 374.67968061417724 288.421880470235 377.35155561417724 288.421880470235 377.35155561417724 288.421880470235 C 377.35155561417724 288.421880470235 377.35155561417724 303.218755470235 377.35155561417724 303.218755470235 C 377.35155561417724 305.156255470235 377.8645764475105 306.6510471369017 378.89061811417724 307.703130470235 C 379.916659780844 308.7552138035683 381.4505139475105 309.281255470235 383.49218061417724 309.281255470235 C 384.8880139475105 309.281255470235 386.03124311417724 309.0286513035683 386.92186811417724 308.523442970235 C 387.81249311417724 308.0182346369017 388.4739514475105 307.3099013035683 388.90624311417724 306.398442970235 C 389.338534780844 305.4869846369017 389.55468061417724 304.4322971369017 389.55468061417724 303.234380470235 C 389.55468061417724 303.234380470235 389.55468061417724 288.421880470235 389.55468061417724 288.421880470235 C 389.55468061417724 288.421880470235 392.19530561417724 288.421880470235 392.19530561417724 288.421880470235 Z M 398.24218061417724 311.265630470235 C 398.24218061417724 311.265630470235 398.24218061417724 288.421880470235 398.24218061417724 288.421880470235 C 398.24218061417724 288.421880470235 400.89843061417724 288.421880470235 400.89843061417724 288.421880470235 C 400.89843061417724 288.421880470235 400.89843061417724 311.265630470235 400.89843061417724 311.265630470235 C 400.89843061417724 311.265630470235 398.24218061417724 311.265630470235 398.24218061417724 311.265630470235 Z M 425.32030561417724 299.625005470235 C 425.32030561417724 302.1979221369017 424.85155561417724 304.3463596369017 423.91405561417724 306.070317970235 C 422.97655561417724 307.7942763035683 421.619784780844 309.0911513035683 419.84374311417724 309.960942970235 C 418.0677014475105 310.8307346369017 415.91405561417724 311.265630470235 413.38280561417724 311.265630470235 C 413.38280561417724 311.265630470235 407.17968061417724 311.265630470235 407.17968061417724 311.265630470235 C 407.17968061417724 311.265630470235 407.17968061417724 288.421880470235 407.17968061417724 288.421880470235 C 407.17968061417724 288.421880470235 414.07030561417724 288.421880470235 414.07030561417724 288.421880470235 C 416.393222280844 288.421880470235 418.393222280844 288.8463596369017 420.07030561417724 289.695317970235 C 421.7473889475105 290.5442763035683 423.041659780844 291.7994846369017 423.95311811417724 293.460942970235 C 424.8645764475105 295.1224013035683 425.32030561417724 297.1770888035683 425.32030561417724 299.625005470235 C 425.32030561417724 299.625005470235 425.32030561417724 299.625005470235 425.32030561417724 299.625005470235 Z M 422.52343061417724 299.718755470235 C 422.52343061417724 297.6666721369017 422.182284780844 295.9739638035683 421.49999311417724 294.640630470235 C 420.8177014475105 293.3072971369017 419.8177014475105 292.3151096369017 418.49999311417724 291.664067970235 C 417.182284780844 291.0130263035683 415.57030561417724 290.687505470235 413.66405561417724 290.687505470235 C 413.66405561417724 290.687505470235 409.83593061417724 290.687505470235 409.83593061417724 290.687505470235 C 409.83593061417724 290.687505470235 409.83593061417724 308.984380470235 409.83593061417724 308.984380470235 C 409.83593061417724 308.984380470235 413.07030561417724 308.984380470235 413.07030561417724 308.984380470235 C 416.2161389475105 308.984380470235 418.57811811417724 308.2083388035683 420.15624311417724 306.656255470235 C 421.73436811417724 305.1041721369017 422.52343061417724 302.7916721369017 422.52343061417724 299.718755470235 C 422.52343061417724 299.718755470235 422.52343061417724 299.718755470235 422.52343061417724 299.718755470235 Z" fill-opacity="1" stroke-opacity="1"/><path fill="#000000" stroke="none" stroke-width="0" data-arc-params="[]" d="M 374.26786551542955 282.4768443361063 L 425.72194448636446 282.47679575791784 L 427.8439775344401 282.9075356368656 L 429.55562095363246 284.0720641539045 L 430.7117620203237 285.7961250233588 L 431.13955135730083 287.94421728470394 L 431.13955135730083 312.0558569911919 L 430.7117620203237 314.20394925253703 L 429.55562095363246 315.92801012199135 L 427.8439775344401 317.09253863903024 L 425.72194448636446 317.523278517978 L 374.2780787221116 317.523278517978 L 372.1560456740359 317.09253863903024 L 370.4444022548436 315.92801012199135 L 369.2882611881524 314.20394925253703 L 368.86047185117525 312.0558569911919 L 368.86047185117525 287.94421728470394 L 369.2882611881524 285.7961250233588 L 370.4444022548436 284.0720641539045 L 372.1560456740359 282.9075356368656 L 374.48187986127556 282.4553011897551 L 374.05385116958354 280.31981902780336 L 371.3283483117077 280.8948008314523 L 368.91501695057923 282.53158362633945 L 367.29002299059067 284.96242296944973 L 366.6979945433753 287.90231366077944 L 366.6979945433753 312.0977606151164 L 367.29002299059067 315.0376513064461 L 368.91501695057923 317.4684906495564 L 371.3283483117077 319.1052734444435 L 374.2576523087475 319.70174981625524 L 425.7423708997286 319.70174981625524 L 428.6716748967683 319.1052734444435 L 431.08500625789685 317.4684906495564 L 432.7100002178854 315.0376513064461 L 433.3020286651008 312.0977606151164 L 433.3020286651008 287.90231366077944 L 432.7100002178854 284.96242296944973 L 431.08500625789685 282.53158362633945 L 428.6716748967683 280.8948008314523 L 425.7423708997286 280.2983244596406 L 374.26786551542955 280.2982758814522 Z" fill-opacity="1" stroke-opacity="1"/><path data-arc-params="[]" fill="none" stroke="none" stroke-width="0" d="M 374.2678527832031 282.4768371582031 L 376.25836181640625 282.4768371582031 L 378.24884033203125 282.4768371582031 L 380.2393493652344 282.4768371582031 L 382.2298583984375 282.4768371582031 L 384.2203674316406 282.4768371582031 L 386.21087646484375 282.4768371582031 L 388.20135498046875 282.4768371582031 L 390.1918640136719 282.4768371582031 L 392.182373046875 282.4768371582031 L 394.1728820800781 282.4768371582031 L 396.16339111328125 282.4768371582031 L 398.15386962890625 282.4768371582031 L 400.1443786621094 282.476806640625 L 402.1348876953125 282.476806640625 L 404.1253967285156 282.476806640625 L 406.1158752441406 282.476806640625 L 408.10638427734375 282.476806640625 L 410.0968933105469 282.476806640625 L 412.08740234375 282.476806640625 L 414.077880859375 282.476806640625 L 416.0683898925781 282.476806640625 L 418.05889892578125 282.476806640625 L 420.0494079589844 282.476806640625 L 422.0399169921875 282.476806640625 L 424.0303955078125 282.476806640625 L 426.0149230957031 282.5362854003906 L 427.9466247558594 282.9773864746094 L 429.58038330078125 284.10894775390625 L 430.6889953613281 285.76214599609375 L 431.0925598144531 287.70819091796875 L 431.1395568847656 289.69403076171875 L 431.1395568847656 291.6845397949219 L 431.1395568847656 293.675048828125 L 431.1395568847656 295.6655578613281 L 431.1395568847656 297.65606689453125 L 431.1395568847656 299.64654541015625 L 431.1395568847656 301.6370544433594 L 431.1395568847656 303.6275634765625 L 431.1395568847656 305.6180725097656 L 431.1395568847656 307.60858154296875 L 431.1395568847656 309.59906005859375 L 431.1395568847656 311.5895690917969 L 430.84185791015625 313.55072021484375 L 429.97412109375 315.303955078125 L 428.5311279296875 316.6250305175781 L 426.707763671875 317.32318115234375 L 424.73736572265625 317.5232849121094 L 422.7468566894531 317.5232849121094 L 420.75634765625 317.5232849121094 L 418.7658386230469 317.5232849121094 L 416.77532958984375 317.5232849121094 L 414.78485107421875 317.5232849121094 L 412.7943420410156 317.5232849121094 L 410.8038330078125 317.5232849121094 L 408.8133544921875 317.5232849121094 L 406.8228454589844 317.5232849121094 L 404.83233642578125 317.5232849121094 L 402.8418273925781 317.5232849121094 L 400.851318359375 317.5232849121094 L 398.86083984375 317.5232849121094 L 396.8703308105469 317.5232849121094 L 394.87982177734375 317.5232849121094 L 392.8893127441406 317.5232849121094 L 390.8988037109375 317.5232849121094 L 388.9083251953125 317.5232849121094 L 386.9178161621094 317.5232849121094 L 384.92730712890625 317.5232849121094 L 382.93682861328125 317.5232849121094 L 380.9462890625 317.5232849121094 L 378.955810546875 317.5232849121094 L 376.9653015136719 317.5232849121094 L 374.97479248046875 317.5232849121094 L 373.0101623535156 317.2658996582031 L 371.2308654785156 316.4631042480469 L 369.8656005859375 315.06488037109375 L 369.1019592285156 313.2684020996094 L 368.8604736328125 311.30169677734375 L 368.8604736328125 309.31121826171875 L 368.8604736328125 307.3207092285156 L 368.8604736328125 305.3302001953125 L 368.8604736328125 303.3397216796875 L 368.8604736328125 301.34918212890625 L 368.8604736328125 299.35870361328125 L 368.8604736328125 297.3681945800781 L 368.8604736328125 295.377685546875 L 368.8604736328125 293.38720703125 L 368.8604736328125 291.39666748046875 L 368.8604736328125 289.40618896484375 L 368.9637145996094 287.4258728027344 L 369.4713439941406 285.5230712890625 L 370.6456604003906 283.93511962890625 L 372.31671142578125 282.87628173828125 L 374.2706298828125 282.4963684082031 L 374.13299560546875 280.714599609375 L 372.50018310546875 280.6475830078125 L 370.6721496582031 281.33984375 L 369.0248107910156 282.4571228027344 L 367.88250732421875 284.07611083984375 L 367.1075439453125 285.86859130859375 L 366.714599609375 287.8199462890625 L 366.697998046875 289.80877685546875 L 366.697998046875 291.7992858886719 L 366.697998046875 293.789794921875 L 366.697998046875 295.7802734375 L 366.697998046875 297.77081298828125 L 366.697998046875 299.76129150390625 L 366.697998046875 301.7518005371094 L 366.697998046875 303.7423095703125 L 366.697998046875 305.7327880859375 L 366.697998046875 307.7232971191406 L 366.697998046875 309.71380615234375 L 366.697998046875 311.70428466796875 L 367.0132751464844 313.6633605957031 L 367.6171569824219 315.5270080566406 L 368.7233581542969 317.18182373046875 L 370.2769775390625 318.3922119140625 L 372.03399658203125 319.24896240234375 L 373.9844665527344 319.6461181640625 L 375.9693603515625 319.7017517089844 L 377.9598693847656 319.7017517089844 L 379.95037841796875 319.7017517089844 L 381.94085693359375 319.7017517089844 L 383.9313659667969 319.7017517089844 L 385.921875 319.7017517089844 L 387.9123840332031 319.7017517089844 L 389.90289306640625 319.7017517089844 L 391.89337158203125 319.7017517089844 L 393.8838806152344 319.7017517089844 L 395.8743896484375 319.7017517089844 L 397.8648986816406 319.7017517089844 L 399.8553771972656 319.7017517089844 L 401.84588623046875 319.7017517089844 L 403.8363952636719 319.7017517089844 L 405.826904296875 319.7017517089844 L 407.8174133300781 319.7017517089844 L 409.8078918457031 319.7017517089844 L 411.79840087890625 319.7017517089844 L 413.7889099121094 319.7017517089844 L 415.7794189453125 319.7017517089844 L 417.7698974609375 319.7017517089844 L 419.7604064941406 319.7017517089844 L 421.75091552734375 319.7017517089844 L 423.7414245605469 319.7017517089844 L 425.73193359375 319.7017517089844 L 427.6825866699219 319.3066711425781 L 429.4836730957031 318.5545654296875 L 431.11590576171875 317.4222717285156 L 432.2221374511719 315.7674560546875 L 432.9296569824219 313.9469299316406 L 433.3020324707031 311.9935302734375 L 433.3020324707031 310.0030212402344 L 433.3020324707031 308.01251220703125 L 433.3020324707031 306.02203369140625 L 433.3020324707031 304.0315246582031 L 433.3020324707031 302.041015625 L 433.3020324707031 300.0505065917969 L 433.3020324707031 298.05999755859375 L 433.3020324707031 296.06951904296875 L 433.3020324707031 294.0790100097656 L 433.3020324707031 292.0885009765625 L 433.3020324707031 290.0979919433594 L 433.3020324707031 288.1075134277344 L 432.9495849609375 286.1521301269531 L 432.2782287597656 284.3165588378906 L 431.1719970703125 282.6617431640625 L 429.56719970703125 281.5021667480469 L 427.7815246582031 280.7135314941406 L 425.8310241699219 280.3163757324219 L 423.84234619140625 280.2983093261719 L 421.8518371582031 280.2983093261719 L 419.8613586425781 280.2983093261719 L 417.870849609375 280.2983093261719 L 415.8803405761719 280.2983093261719 L 413.88983154296875 280.2983093261719 L 411.8993225097656 280.2983093261719 L 409.9088439941406 280.2983093261719 L 407.9183349609375 280.2983093261719 L 405.9278259277344 280.2983093261719 L 403.93731689453125 280.2983093261719 L 401.94683837890625 280.2983093261719 L 399.9563293457031 280.2983093261719 L 397.9658203125 280.29827880859375 L 395.9753112792969 280.29827880859375 L 393.9848327636719 280.29827880859375 L 391.99432373046875 280.29827880859375 L 390.0038146972656 280.29827880859375 L 388.0133056640625 280.29827880859375 L 386.0227966308594 280.29827880859375 L 384.0323181152344 280.29827880859375 L 382.04180908203125 280.29827880859375 L 380.0513000488281 280.29827880859375 L 378.060791015625 280.29827880859375 L 376.0703125 280.29827880859375 L 374.2678527832031 280.486328125 L 374.2678527832031 282.4768371582031 L 374.2678527832031 282.4768371582031 L 374.2678527832031 282.4768371582031 L 374.2678527832031 282.4768371582031 L 374.2678527832031 280.486328125 L 376.0703125 280.29827880859375 L 378.060791015625 280.29827880859375 L 380.0513000488281 280.29827880859375 L 382.04180908203125 280.29827880859375 L 384.0323181152344 280.29827880859375 L 386.0227966308594 280.29827880859375 L 388.0133056640625 280.29827880859375 L 390.0038146972656 280.29827880859375 L 391.99432373046875 280.29827880859375 L 393.9848327636719 280.29827880859375 L 395.9753112792969 280.29827880859375 L 397.9658203125 280.29827880859375 L 399.9563293457031 280.2983093261719 L 401.94683837890625 280.2983093261719 L 403.93731689453125 280.2983093261719 L 405.9278259277344 280.2983093261719 L 407.9183349609375 280.2983093261719 L 409.9088439941406 280.2983093261719 L 411.8993225097656 280.2983093261719 L 413.88983154296875 280.2983093261719 L 415.8803405761719 280.2983093261719 L 417.870849609375 280.2983093261719 L 419.8613586425781 280.2983093261719 L 421.8518371582031 280.2983093261719 L 423.84234619140625 280.2983093261719 L 425.8310241699219 280.3163757324219 L 427.7815246582031 280.7135314941406 L 429.56719970703125 281.5021667480469 L 431.1719970703125 282.6617431640625 L 432.2782287597656 284.3165588378906 L 432.9495849609375 286.1521301269531 L 433.3020324707031 288.1075134277344 L 433.3020324707031 290.0979919433594 L 433.3020324707031 292.0885009765625 L 433.3020324707031 294.0790100097656 L 433.3020324707031 296.06951904296875 L 433.3020324707031 298.05999755859375 L 433.3020324707031 300.0505065917969 L 433.3020324707031 302.041015625 L 433.3020324707031 304.0315246582031 L 433.3020324707031 306.02203369140625 L 433.3020324707031 308.01251220703125 L 433.3020324707031 310.0030212402344 L 433.3020324707031 311.9935302734375 L 432.9296569824219 313.9469299316406 L 432.2221374511719 315.7674560546875 L 431.11590576171875 317.4222717285156 L 429.4836730957031 318.5545654296875 L 427.6825866699219 319.3066711425781 L 425.73193359375 319.7017517089844 L 423.7414245605469 319.7017517089844 L 421.75091552734375 319.7017517089844 L 419.7604064941406 319.7017517089844 L 417.7698974609375 319.7017517089844 L 415.7794189453125 319.7017517089844 L 413.7889099121094 319.7017517089844 L 411.79840087890625 319.7017517089844 L 409.8078918457031 319.7017517089844 L 407.8174133300781 319.7017517089844 L 405.826904296875 319.7017517089844 L 403.8363952636719 319.7017517089844 L 401.84588623046875 319.7017517089844 L 399.8553771972656 319.7017517089844 L 397.8648986816406 319.7017517089844 L 395.8743896484375 319.7017517089844 L 393.8838806152344 319.7017517089844 L 391.89337158203125 319.7017517089844 L 389.90289306640625 319.7017517089844 L 387.9123840332031 319.7017517089844 L 385.921875 319.7017517089844 L 383.9313659667969 319.7017517089844 L 381.94085693359375 319.7017517089844 L 379.95037841796875 319.7017517089844 L 377.9598693847656 319.7017517089844 L 375.9693603515625 319.7017517089844 L 373.9844665527344 319.6461181640625 L 372.03399658203125 319.24896240234375 L 370.2769775390625 318.3922119140625 L 368.7233581542969 317.18182373046875 L 367.6171569824219 315.5270080566406 L 367.0132751464844 313.6633605957031 L 366.697998046875 311.70428466796875 L 366.697998046875 309.71380615234375 L 366.697998046875 307.7232971191406 L 366.697998046875 305.7327880859375 L 366.697998046875 303.7423095703125 L 366.697998046875 301.7518005371094 L 366.697998046875 299.76129150390625 L 366.697998046875 297.77081298828125 L 366.697998046875 295.7802734375 L 366.697998046875 293.789794921875 L 366.697998046875 291.7992858886719 L 366.697998046875 289.80877685546875 L 366.714599609375 287.8199462890625 L 367.1075439453125 285.86859130859375 L 367.88250732421875 284.07611083984375 L 369.0248107910156 282.4571228027344 L 370.6721496582031 281.33984375 L 372.50018310546875 280.6475830078125 L 374.13299560546875 280.714599609375 L 374.2706298828125 282.4963684082031 L 372.31671142578125 282.87628173828125 L 370.6456604003906 283.93511962890625 L 369.4713439941406 285.5230712890625 L 368.9637145996094 287.4258728027344 L 368.8604736328125 289.40618896484375 L 368.8604736328125 291.39666748046875 L 368.8604736328125 293.38720703125 L 368.8604736328125 295.377685546875 L 368.8604736328125 297.3681945800781 L 368.8604736328125 299.35870361328125 L 368.8604736328125 301.34918212890625 L 368.8604736328125 303.3397216796875 L 368.8604736328125 305.3302001953125 L 368.8604736328125 307.3207092285156 L 368.8604736328125 309.31121826171875 L 368.8604736328125 311.30169677734375 L 369.1019592285156 313.2684020996094 L 369.8656005859375 315.06488037109375 L 371.2308654785156 316.4631042480469 L 373.0101623535156 317.2658996582031 L 374.97479248046875 317.5232849121094 L 376.9653015136719 317.5232849121094 L 378.955810546875 317.5232849121094 L 380.9462890625 317.5232849121094 L 382.93682861328125 317.5232849121094 L 384.92730712890625 317.5232849121094 L 386.9178161621094 317.5232849121094 L 388.9083251953125 317.5232849121094 L 390.8988037109375 317.5232849121094 L 392.8893127441406 317.5232849121094 L 394.87982177734375 317.5232849121094 L 396.8703308105469 317.5232849121094 L 398.86083984375 317.5232849121094 L 400.851318359375 317.5232849121094 L 402.8418273925781 317.5232849121094 L 404.83233642578125 317.5232849121094 L 406.8228454589844 317.5232849121094 L 408.8133544921875 317.5232849121094 L 410.8038330078125 317.5232849121094 L 412.7943420410156 317.5232849121094 L 414.78485107421875 317.5232849121094 L 416.77532958984375 317.5232849121094 L 418.7658386230469 317.5232849121094 L 420.75634765625 317.5232849121094 L 422.7468566894531 317.5232849121094 L 424.73736572265625 317.5232849121094 L 426.707763671875 317.32318115234375 L 428.5311279296875 316.6250305175781 L 429.97412109375 315.303955078125 L 430.84185791015625 313.55072021484375 L 431.1395568847656 311.5895690917969 L 431.1395568847656 309.59906005859375 L 431.1395568847656 307.60858154296875 L 431.1395568847656 305.6180725097656 L 431.1395568847656 303.6275634765625 L 431.1395568847656 301.6370544433594 L 431.1395568847656 299.64654541015625 L 431.1395568847656 297.65606689453125 L 431.1395568847656 295.6655578613281 L 431.1395568847656 293.675048828125 L 431.1395568847656 291.6845397949219 L 431.1395568847656 289.69403076171875 L 431.0925598144531 287.70819091796875 L 430.6889953613281 285.76214599609375 L 429.58038330078125 284.10894775390625 L 427.9466247558594 282.9773864746094 L 426.0149230957031 282.5362854003906 L 424.0303955078125 282.476806640625 L 422.0399169921875 282.476806640625 L 420.0494079589844 282.476806640625 L 418.05889892578125 282.476806640625 L 416.0683898925781 282.476806640625 L 414.077880859375 282.476806640625 L 412.08740234375 282.476806640625 L 410.0968933105469 282.476806640625 L 408.10638427734375 282.476806640625 L 406.1158752441406 282.476806640625 L 404.1253967285156 282.476806640625 L 402.1348876953125 282.476806640625 L 400.1443786621094 282.476806640625 L 398.15386962890625 282.4768371582031 L 396.16339111328125 282.4768371582031 L 394.1728820800781 282.4768371582031 L 392.182373046875 282.4768371582031 L 390.1918640136719 282.4768371582031 L 388.20135498046875 282.4768371582031 L 386.21087646484375 282.4768371582031 L 384.2203674316406 282.4768371582031 L 382.2298583984375 282.4768371582031 L 380.2393493652344 282.4768371582031 L 378.24884033203125 282.4768371582031 L 376.25836181640625 282.4768371582031 L 374.2678527832031 282.4768371582031 Z"/></g></g></svg>